<svg xmlns="http://www.w3.org/2000/svg" version="1.1" xmlns:xlink="http://www.w3.org/1999/xlink" xmlns:svgjs="http://svgjs.dev/svgjs" width="1000" height="262" viewBox="0 0 1000 262"><g transform="matrix(1,0,0,1,-0.6060604473654507,-0.10835728960236679)"><svg viewBox="0 0 396 104" data-background-color="#ffffff" preserveAspectRatio="xMidYMid meet" height="262" width="1000" xmlns="http://www.w3.org/2000/svg" xmlns:xlink="http://www.w3.org/1999/xlink"><g id="tight-bounds" transform="matrix(1,0,0,1,0.23999993715671053,0.043012053887963475)"><svg viewBox="0 0 395.52 103.91397589222406" height="103.91397589222406" width="395.52"><g><svg viewBox="0 0 395.52 103.91397589222406" height="103.91397589222406" width="395.52"><g><svg viewBox="0 0 395.52 103.91397589222406" height="103.91397589222406" width="395.52"><g id="textblocktransform"><svg viewBox="0 0 395.52 103.91397589222406" height="103.91397589222406" width="395.52" id="textblock"><g><svg viewBox="0 0 395.52 103.91397589222406" height="103.91397589222406" width="395.52"><g transform="matrix(1,0,0,1,0,0)"><svg width="395.52" viewBox="2.5 -36.05 151.097142808485 39.699999999999996" height="103.91397589222406" data-palette-color="#6f605b"><path d="M22.75-35.6Q24-35.1 24-34.2L24-34.2Q24-33.3 22.75-31.9L22.75-31.9Q22.2-31.95 21.15-31.95L21.15-31.95Q18.85-31.95 16.75-31.33 14.65-30.7 12.4-29.4L12.4-29.4Q11.35-28.75 10.6-27.75L10.6-27.75Q10.05-27.15 10.05-26.35L10.05-26.35Q10.05-25 11.55-23.75L11.55-23.75Q13-22.25 16.3-18.3L16.3-18.3 17.45-17.1Q19.9-14.45 21.33-12.6 22.75-10.75 23.75-8.35L23.75-8.35Q24.15-7.3 24.15-6.45L24.15-6.45Q24.15-4.3 22.5-2.5L22.5-2.5Q20.6-0.4 18.1 0.58 15.6 1.55 12.45 1.8L12.45 1.8Q12.05 1.85 11.5 1.9 10.95 1.95 10.25 1.95L10.25 1.95Q9.8 1.95 8.9 1.85L8.9 1.85Q7.8 1.9 6.6 1.48 5.4 1.05 4.4 0.25L4.4 0.25Q2.5-1.35 2.5-3.3L2.5-3.3Q2.5-4.95 3.9-6.65L3.9-6.65Q4.6-6.55 4.73-6.23 4.85-5.9 4.78-5.5 4.7-5.1 4.7-4.85L4.7-4.85Q4.7-4.7 4.8-4.4L4.8-4.4Q6.75-3.5 9.45-3.5L9.45-3.5Q12.45-3.5 15.13-4.53 17.8-5.55 18.4-7.05L18.4-7.05Q18.75-8.05 16.7-10.58 14.65-13.1 12.1-15.5L12.1-15.5Q9.7-17.65 7.75-19.75L7.75-19.75Q6.65-20.95 6.03-22.53 5.4-24.1 5.4-25.8L5.4-25.8Q5.4-28.1 6.58-30.15 7.75-32.2 10.1-33.5L10.1-33.5Q14.6-36.05 19.3-36.05L19.3-36.05Q19.95-36.05 21.15-35.95L21.15-35.95Q22.25-35.85 22.75-35.6L22.75-35.6ZM34.8-26.7Q34.85-21.85 35.07-18.73 35.3-15.6 36.15-12.1L36.15-12.1Q38.25-12.85 40-12.85L40-12.85Q42.95-12.85 45.1-11.1 47.25-9.35 48-6.75L48-6.75Q48.6-4.85 48.6-1.65L48.6-1.65 48.55 2.25Q48.55 2.6 48.15 3.05 47.75 3.5 47.35 3.6L47.35 3.6Q47.2 3.65 46.9 3.65L46.9 3.65Q45.75 3.65 44.5 2.53 43.25 1.4 43.2 0.3L43.2 0.3 43.1-2.3Q43.1-3.2 43-4.9L43-4.9Q42.9-6.65 42.6-7.4L42.6-7.4Q42.3-8.25 41.85-8.7 41.4-9.15 40.85-9.15L40.85-9.15Q40.45-9.15 39.97-8.8 39.5-8.45 39.15-7.85L39.15-7.85Q38.1-6.2 36.4-1.35L36.4-1.35Q35.85 0.4 34.45 0.4L34.45 0.4Q34.3 0.4 33.8 0.3L33.8 0.3Q33.5 0.2 32.65-0.03 31.8-0.25 31.32-0.75 30.85-1.25 30.85-2.2L30.85-2.2Q30.85-11.65 29.7-17.85L29.7-17.85Q29.15-20.95 29.15-25L29.15-25 29.15-28.35 29.15-30.1Q29.15-30.8 29.9-31.3 30.65-31.8 31.6-31.8L31.6-31.8Q32.4-31.8 32.95-31.45L32.95-31.45Q33.95-30.85 34.37-29.95 34.8-29.05 34.8-27.7L34.8-27.7 34.8-26.7ZM55.09-21Q56.34-20.65 56.87-20.15 57.4-19.65 57.4-18.8L57.4-18.8Q57.4-18.4 57.25-17.75L57.25-17.75Q56.7-15.5 56.65-13.25L56.65-13.25Q56.59-10.7 57.45-8.55L57.45-8.55Q57.75-7.8 58.02-7.48 58.3-7.15 58.7-7.15L58.7-7.15Q59.2-7.15 60-8.05L60-8.05Q61.84-10.25 62.75-12.45 63.65-14.65 63.84-17L63.84-17Q64-18.55 64.34-18.95L64.34-18.95Q64.55-19.15 65-19.2 65.45-19.25 66.3-19.25L66.3-19.25Q67.65-19.15 68.17-19 68.7-18.85 68.9-18.5 69.09-18.15 69.09-17.35L69.09-17.35 69.05-15Q69.05-14.25 69-12.8L69-12.8Q68.84-8.3 68.75-6.1L68.75-6.1Q68.7-4.35 67.7-1.7L67.7-1.7Q67.59-1.55 67.15-1.28 66.7-1 66.34-0.95L66.34-0.95Q66.25-0.95 65.92-1.28 65.59-1.6 65.45-1.85L65.45-1.85Q65.09-2.65 64.65-4L64.65-4 64.25-4.95 64.15-5.25 64-5.1 63.2-4.6Q62.59-4.1 61.9-3.8L61.9-3.8Q60.75-3.1 59.15-3.1L59.15-3.1Q57.15-3.1 55.34-4.23 53.55-5.35 52.5-7.3L52.5-7.3Q50.8-10.3 50.8-14.25L50.8-14.25Q50.8-16.25 51.34-19.3L51.34-19.3Q51.45-20.05 52.3-20.6L52.3-20.6Q53.05-21.15 54.05-21.15L54.05-21.15Q54.55-21.15 55.09-21L55.09-21ZM79.99-21.1Q79.99-20.15 79.74-18.5L79.74-18.5Q79.54-16.6 79.49-15.45L79.49-15.45Q80.09-15.7 80.89-16.6L80.89-16.6Q81.34-17.1 81.79-17.45L81.79-17.45Q83.99-19 85.99-19L85.99-19Q88.09-19 90.44-17.25L90.44-17.25Q93.99-14.65 93.99-11.15L93.99-11.15Q93.99-8.4 91.69-5.35L91.69-5.35Q88.39-0.9 82.39 0L82.39 0Q82.09 0.05 81.49 0.05L81.49 0.05Q80.54 0.05 78.34-0.35L78.34-0.35Q78.34-0.85 78.19-1.45L78.19-1.45Q78.54-1.6 79.12-1.88 79.69-2.15 80.14-2.2L80.14-2.2Q81.69-2.35 83.62-3.83 85.54-5.3 86.99-7.25 88.44-9.2 88.64-10.65L88.64-10.65Q88.69-10.85 88.74-11.2 88.79-11.55 88.79-12.05L88.79-12.05Q88.79-12.55 88.64-12.9L88.64-12.9Q87.84-14.75 86.79-15.35L86.79-15.35Q86.49-15.5 85.74-15.03 84.99-14.55 84.54-14L84.54-14Q81.24-10.4 80.64-5.75L80.64-5.75Q80.44-3.95 78.59-4L78.59-4Q77.09-4 75.84-5.23 74.59-6.45 74.59-7.95L74.59-7.95Q74.54-15.5 74.54-30.55L74.54-30.55Q74.54-31.8 75.27-32.27 75.99-32.75 77.39-33.05L77.39-33.05Q77.99-33.2 78.74-32.8 79.49-32.4 80.04-31.75 80.59-31.1 80.59-30.45L80.59-30.45Q80.59-27.5 80.14-23.1L80.14-23.1 79.99-21.1ZM114.24-2.55Q113.79-2.75 113.34-2.75L113.34-2.75Q112.89-2.75 112.57-2.53 112.24-2.3 111.84-1.85L111.84-1.85Q111.24-1.25 110.59-0.85L110.59-0.85Q109.99-0.5 108.39-0.2L108.39-0.2Q107.69-0.1 107.24-0.1L107.24-0.1Q105.14-0.1 102.87-1.03 100.59-1.95 99.64-3.25L99.64-3.25Q98.64-4.65 98.69-6.25L98.69-6.25Q98.74-8.65 100.69-11.05L100.69-11.05Q102.59-13.35 104.17-14.3 105.74-15.25 108.49-15.5L108.49-15.5Q109.09-15.5 110.22-15.7 111.34-15.9 111.34-16.25L111.34-16.25Q111.34-16.95 110.72-17.53 110.09-18.1 108.19-18.1L108.19-18.1Q107.49-18.1 106.09-18L106.09-18Q104.69-17.9 104.14-17.9L104.14-17.9Q102.44-17.9 101.69-18.45L101.69-18.45Q101.49-18.55 101.49-19.4L101.49-19.4Q101.49-20.9 102.54-21.3L102.54-21.3Q104.69-22.1 106.99-22.15L106.99-22.15Q109.89-22.15 112.37-20.88 114.84-19.6 115.99-17.7L115.99-17.7Q117.14-15.8 117.49-12.45L117.49-12.45Q117.89-8.7 117.89-2.9L117.89-2.9Q117.89-1.3 117.44-1.05L117.44-1.05Q117.04-0.8 116.69-0.8L116.69-0.8Q116.24-0.8 115.87-1.07 115.49-1.35 115.04-1.85L115.04-1.85Q114.59-2.4 114.24-2.55L114.24-2.55ZM106.34-3.15Q108.69-3.85 110.94-5.4L110.94-5.4Q111.44-5.75 111.84-6.3 112.24-6.85 112.34-7L112.34-7Q112.44-7.15 112.52-7.88 112.59-8.6 112.54-9.05L112.54-9.05Q112.49-9.2 112.37-9.85 112.24-10.5 111.99-11L111.99-11Q111.74-11.4 111.19-11.75 110.64-12.1 110.19-12.05L110.19-12.05Q109.24-12 108.14-11.35 107.04-10.7 106.09-9.6L106.09-9.6Q105.14-8.45 104.62-7.28 104.09-6.1 104.09-5.1L104.09-5.1Q104.19-3.75 104.84-3.3L104.84-3.3Q105.19-3.05 105.69-3.05L105.69-3.05Q106.09-3.05 106.34-3.15L106.34-3.15ZM148.24-13.05Q148.14-14.95 146.64-15.85L146.64-15.85Q145.44-15.55 144.69-15.1 143.94-14.65 143.59-14.23 143.24-13.8 142.34-12.6L142.34-12.6Q142.04-12.2 141.71-11.5 141.39-10.8 141.34-10.65L141.34-10.65Q141.19-10.3 141.19-9.9L141.19-9.9Q141.19-9.6 141.31-8.97 141.44-8.35 141.39-8L141.39-8Q141.34-7.25 141.44-5.65L141.44-5.65 141.49-4.1Q141.49-3.4 141.44-3.05L141.44-3.05Q141.34-2.25 140.94-1.65 140.54-1.05 139.84-1.05L139.84-1.05Q139.59-1.05 139.19-1.2L139.19-1.2Q138.84-1.3 138.04-1.55 137.24-1.8 136.79-2.33 136.34-2.85 136.34-3.85L136.34-3.85Q136.34-6.45 135.84-11.65L135.84-11.65Q135.74-12.2 135.64-13.5L135.64-13.5Q135.59-14.05 135.14-14.35 134.69-14.65 134.04-14.65L134.04-14.65Q132.99-14.65 132.44-14.1L132.44-14.1Q130.14-12.8 129.09-11.15 128.04-9.5 128.04-6.9L128.04-6.9 128.09-5.2Q128.09-3.55 127.24-2.15L127.24-2.15Q126.99-1.7 126.21-1.38 125.44-1.05 124.89-1.15L124.89-1.15Q124.39-1.2 123.86-1.83 123.34-2.45 123.34-2.95L123.34-2.95Q123.19-7.15 123.19-11.3L123.19-11.3Q123.19-15.05 123.29-16.9L123.29-16.9Q123.34-17.85 123.94-18.4 124.54-18.95 125.39-18.95L125.39-18.95Q126.49-18.95 127.34-18.15L127.34-18.15Q127.79-17.3 128.09-16.93 128.39-16.55 128.74-16.55L128.74-16.55Q129.04-16.55 129.44-16.88 129.84-17.2 130.54-17.95L130.54-17.95Q132.19-19.75 133.99-19.75L133.99-19.75Q135.94-19.75 138.69-17.8L138.69-17.8Q138.89-17.65 139.24-17.38 139.59-17.1 139.84-17.1L139.84-17.1Q140.19-17.1 140.94-17.9L140.94-17.9Q143.74-20.5 148.04-20.75L148.04-20.75Q149.39-20.8 150.76-19.73 152.14-18.65 152.49-17.15L152.49-17.15Q153.09-14.6 153.34-11.15L153.34-11.15Q153.64-5.95 153.59-3.35L153.59-3.35Q153.54-2.15 152.94-1.48 152.34-0.8 151.39-0.8L151.39-0.8Q150.64-0.8 149.79-1.25L149.79-1.25Q149.44-1.4 149.14-1.8 148.84-2.2 148.84-2.5L148.84-2.5 148.54-7.8Q148.49-8.65 148.44-9.98 148.39-11.3 148.24-13.05L148.24-13.05Z" opacity="1" transform="matrix(1,0,0,1,0,0)" fill="#6f605b" class="wordmark-text-0" data-fill-palette-color="primary" id="text-0"></path></svg></g></svg></g></svg></g></svg></g></svg></g><defs></defs></svg><rect width="395.52" height="103.91397589222406" fill="none" stroke="none" visibility="hidden"></rect></g></svg></g></svg>